<?xml version="1.0" encoding="UTF-8"?>
<svg id="Layer_2" data-name="Layer 2" xmlns="http://www.w3.org/2000/svg" viewBox="0 0 395.98 110.48">
  <defs>
    <style>
      .cls-1 {
        fill: #e82631;
      }

      .cls-2 {
        fill: #e8e7e9;
      }

      .cls-3 {
        fill: #0059a2;
      }

      .cls-4 {
        fill: #f4a034;
      }
    </style>
  </defs>
  <g id="Layer_1-2" data-name="Layer 1">
    <g>
      <g>
        <path class="cls-2" d="M110.48,55.24c0,30.51-24.73,55.24-55.24,55.24S0,85.75,0,55.24,24.73,0,55.24,0s55.24,24.73,55.24,55.24Z"/>
        <g>
          <g>
            <path class="cls-4" d="M47.56,98.31c-8.67,1.23-16.3,.18-19.07-1.73,0,0,9.71,1.56,16.47-.17,6.77-1.74,26.62-12.78,32.94-16.65,6.01-3.69,21.85-7.8,31.39-13.42,.73-3.59,1.12-7.29,1.12-11.1,0-1.86-.12-3.69-.3-5.51-3.84,1.91-9.76,4.65-14.51,6.09-11.97,3.64-21.68,14.22-30.34,23.75-8.67,9.55-22.37,17.73-34.51,15.63,0,0,14.24-1.01,21.15-7.45,11.96-11.1,22.6-31.68,27.23-36.97,8.06-9.21,20.42-11.87,27.56-15.37-1.94-5.01-4.54-9.7-7.77-13.88l-.73,.11c-24.62,3.55-27.42,16.63-31.76,28.45-4.34,11.81-9.06,31.11-24.41,39.76-15.29,8.61-29.56,.09-29.72,0,10.12,12.52,25.6,20.54,42.95,20.54,11.39,0,21.97-3.45,30.76-9.37-8.31,1.93-19.12,4.03-28.21,4.38-17.52,.7-28.09-2.77-32.07-6.59,0,0,12.82,5.02,27.9,3.12,13.32-1.69,30.7-3.93,43.29-10.64,2.76-3.19,5.17-6.68,7.15-10.44-5.14,1.95-12.84,4.79-16.98,5.99-6.18,1.79-30.85,10.22-39.52,11.44Z"/>
            <path class="cls-1" d="M42.01,89.86c15.36-8.65,20.08-27.96,24.41-39.76,4.34-11.82,7.13-24.9,31.76-28.45l.73-.11h-.01c-.15-.09-14.43-8.6-29.7,0-15.37,8.66-20.09,27.97-24.41,39.78-4.33,11.81-7.89,25.01-32.49,28.54h0c.16,.09,14.43,8.61,29.72,0Z"/>
          </g>
          <g>
            <path class="cls-3" d="M1.19,44.17s.02,0,.03,0"/>
            <path class="cls-3" d="M55.24,.08C43.87,.08,33.34,3.55,24.56,9.44c8.3-1.93,19.08-4.01,28.14-4.37,17.52-.68,28.08,2.78,32.09,6.6,0,0-12.83-5.04-27.91-3.13-13.34,1.7-30.72,3.93-43.33,10.64-2.76,3.19-5.16,6.67-7.14,10.42,5.15-1.93,12.85-4.78,16.99-5.98,6.18-1.79,30.86-10.24,39.53-11.44,8.67-1.21,16.3-.16,19.09,1.74,0,0-9.72-1.57-16.48,.17-6.77,1.73-26.63,12.75-32.94,16.64-6,3.7-21.82,7.8-31.37,13.42C.48,47.74,.08,51.44,.08,55.24c0,1.86,.12,3.7,.3,5.53,3.85-1.9,9.76-4.63,14.53-6.11,11.97-3.63,21.69-14.2,30.34-23.74,8.67-9.53,22.37-16.81,34.51-14.74,0,0-14.23,1.04-21.15,7.46-11.97,11.11-22.6,30.78-27.23,36.07-8.08,9.22-20.44,11.87-27.57,15.38,2.07,5.38,4.94,10.37,8.49,14.78,24.6-3.53,28.16-16.74,32.49-28.54,4.33-11.81,9.05-31.12,24.41-39.78,15.28-8.6,29.55-.09,29.7,0C88.81,8.48,73.01,.08,55.24,.08Z"/>
          </g>
        </g>
      </g>
      <g>
        <g>
          <path class="cls-3" d="M119.43,22.82h7.03c.42,3.16,2.69,4.75,6.23,4.75,3.16,0,5.01-1.18,5.01-3.2v-.17c0-2.02-1.35-2.9-6.99-3.91-7.2-1.3-10.27-4-10.27-8.92v-.29c0-5.47,4.88-8.92,11.61-8.92s11.7,3.41,12.2,9.68h-7.03c-.3-2.82-2.19-4.17-5.3-4.17s-4.46,1.35-4.46,3.11v.13c0,1.73,.84,2.69,6.52,3.62,6.86,1.14,10.77,3.7,10.77,8.88v.34c0,5.81-5.13,9.38-12.25,9.38-7.91,0-12.66-3.87-13.09-10.31Z"/>
          <path class="cls-3" d="M147.95,32.59V2.71h7.11V14.37h11.95V2.71h7.11v29.88h-7.11v-12.41h-11.95v12.41h-7.11Z"/>
          <path class="cls-3" d="M178.33,32.59V2.71h13.55c6.35,0,11.11,3.37,11.11,9.68v.42c0,4.54-2.4,7.53-6.14,8.88l7.03,10.9h-7.79l-6.23-10.1h-4.5v10.1h-7.03Zm7.03-15.86h5.76c2.69,0,4.54-1.18,4.54-3.91v-.42c0-2.74-1.85-3.91-4.54-3.91h-5.76v8.25Z"/>
          <path class="cls-3" d="M206.35,32.59V2.71h22.05v5.77h-15.07v6.1h13.51v5.6h-13.51v6.65h15.4v5.76h-22.39Z"/>
          <path class="cls-3" d="M240.6,32.59l-10.18-29.88h7.57l6.69,21.97,6.69-21.97h7.32l-10.23,29.88h-7.87Z"/>
          <path class="cls-3" d="M261.13,32.59V2.71h22.05v5.77h-15.06v6.1h13.51v5.6h-13.51v6.65h15.4v5.76h-22.39Z"/>
          <path class="cls-3" d="M286.96,32.59V2.71h13.13c6.35,0,11.11,3.37,11.11,9.68v.42c0,6.35-4.71,9.68-11.11,9.68h-6.1v10.1h-7.03Zm7.03-15.86h5.34c2.69,0,4.54-1.18,4.54-3.91v-.42c0-2.74-1.85-3.91-4.54-3.91h-5.34v8.25Z"/>
          <path class="cls-3" d="M313.3,18.07v-.84c0-8.71,5.68-15.06,14.81-15.06s14.86,6.35,14.86,15.06v.84c0,8.71-5.68,15.06-14.86,15.06s-14.81-6.35-14.81-15.06Zm22.3,0v-.84c0-5.64-2.65-9.22-7.49-9.22s-7.45,3.58-7.45,9.22v.84c0,5.64,2.69,9.22,7.45,9.22s7.49-3.58,7.49-9.22Z"/>
          <path class="cls-3" d="M346.33,32.59V2.71h13.55c6.35,0,11.11,3.37,11.11,9.68v.42c0,4.54-2.4,7.53-6.14,8.88l7.03,10.9h-7.79l-6.23-10.1h-4.5v10.1h-7.03Zm7.03-15.86h5.76c2.69,0,4.54-1.18,4.54-3.91v-.42c0-2.74-1.85-3.91-4.54-3.91h-5.76v8.25Z"/>
          <path class="cls-3" d="M380.66,32.59V8.47h-8.25V2.71h23.56v5.77h-8.21v24.11h-7.11Z"/>
        </g>
        <g>
          <path class="cls-3" d="M120.48,70.96v-29.88h13.55c6.35,0,11.11,3.37,11.11,9.68v.42c0,4.55-2.4,7.53-6.14,8.88l7.03,10.9h-7.78l-6.23-10.1h-4.5v10.1h-7.03Zm7.03-15.86h5.76c2.69,0,4.54-1.18,4.54-3.91v-.42c0-2.74-1.85-3.91-4.54-3.91h-5.76v8.25Z"/>
          <path class="cls-3" d="M148.5,70.96v-29.88h22.05v5.76h-15.06v6.1h13.51v5.6h-13.51v6.65h15.4v5.76h-22.39Z"/>
          <path class="cls-3" d="M172.57,56.44v-.84c0-8.79,5.76-15.06,14.77-15.06,7.53,0,12.29,4.46,13.17,10.52h-7.15c-.71-2.86-2.73-4.67-6.14-4.67-4.75,0-7.28,3.7-7.28,9.21v.84c0,5.55,2.65,9.22,7.58,9.22s6.98-2.82,7.2-6.14h-7.87v-5.3h13.8v16.75h-5.13l-.59-3.79c-1.47,2.53-4.67,4.33-8.71,4.33-8.37,0-13.63-6.23-13.63-15.06Z"/>
          <path class="cls-3" d="M204.75,70.96v-29.88h7.15v29.88h-7.15Z"/>
          <path class="cls-3" d="M215.48,56.44v-.84c0-8.71,5.68-15.06,14.81-15.06s14.85,6.35,14.85,15.06v.84c0,8.71-5.68,15.06-14.85,15.06s-14.81-6.35-14.81-15.06Zm22.3,0v-.84c0-5.64-2.65-9.21-7.49-9.21s-7.45,3.58-7.45,9.21v.84c0,5.64,2.69,9.22,7.45,9.22s7.49-3.58,7.49-9.22Z"/>
          <path class="cls-3" d="M248.51,70.96v-29.88h8.29l11.32,19.82v-19.82h6.69v29.88h-7.87l-11.66-20.62v20.62h-6.77Z"/>
          <path class="cls-3" d="M300.01,70.96l-2.06-5.93h-11.44l-2.06,5.93h-7.2l11.24-29.88h7.74l11.24,29.88h-7.45Zm-11.57-11.49h7.62l-3.83-11.02-3.79,11.02Z"/>
          <path class="cls-3" d="M309.85,70.96v-29.88h7.11v24.11h11.44v5.76h-18.56Z"/>
        </g>
        <g>
          <path class="cls-3" d="M141.48,109.33l-2.06-5.93h-11.45l-2.06,5.93h-7.2l11.24-29.88h7.74l11.23,29.88h-7.45Zm-11.57-11.49h7.62l-3.83-11.02-3.79,11.02Z"/>
          <path class="cls-3" d="M151.53,109.33v-29.88h7.15v29.88h-7.15Z"/>
          <path class="cls-3" d="M163.1,109.33v-29.88h13.55c6.35,0,11.11,3.37,11.11,9.68v.42c0,4.55-2.4,7.53-6.14,8.88l7.03,10.9h-7.79l-6.23-10.1h-4.5v10.1h-7.03Zm7.03-15.86h5.76c2.69,0,4.54-1.18,4.54-3.91v-.42c0-2.73-1.85-3.91-4.54-3.91h-5.76v8.25Z"/>
          <path class="cls-3" d="M191.12,109.33v-29.88h13.13c6.35,0,11.11,3.37,11.11,9.68v.42c0,6.35-4.71,9.68-11.11,9.68h-6.1v10.1h-7.03Zm7.03-15.86h5.34c2.69,0,4.54-1.18,4.54-3.91v-.42c0-2.73-1.85-3.91-4.54-3.91h-5.34v8.25Z"/>
          <path class="cls-3" d="M217.46,94.81v-.84c0-8.71,5.68-15.06,14.81-15.06s14.85,6.35,14.85,15.06v.84c0,8.71-5.68,15.06-14.85,15.06s-14.81-6.35-14.81-15.06Zm22.3,0v-.84c0-5.64-2.65-9.21-7.49-9.21s-7.45,3.58-7.45,9.21v.84c0,5.64,2.69,9.22,7.45,9.22s7.49-3.58,7.49-9.22Z"/>
          <path class="cls-3" d="M250.48,109.33v-29.88h13.55c6.35,0,11.11,3.37,11.11,9.68v.42c0,4.55-2.4,7.53-6.14,8.88l7.03,10.9h-7.78l-6.23-10.1h-4.5v10.1h-7.03Zm7.03-15.86h5.76c2.69,0,4.54-1.18,4.54-3.91v-.42c0-2.73-1.85-3.91-4.54-3.91h-5.76v8.25Z"/>
          <path class="cls-3" d="M284.82,109.33v-24.11h-8.25v-5.76h23.56v5.76h-8.21v24.11h-7.11Z"/>
        </g>
      </g>
    </g>
  </g>
</svg>