<?xml version="1.0" encoding="UTF-8"?>
<svg id="Layer_2" data-name="Layer 2" xmlns="http://www.w3.org/2000/svg" viewBox="0 0 651.66 62.31">
  <defs>
    <style>
      .cls-1 {
        fill: #e82631;
      }

      .cls-2 {
        fill: #e8e7e9;
      }

      .cls-3 {
        fill: #0059a2;
      }

      .cls-4 {
        fill: #f4a034;
      }
    </style>
  </defs>
  <g id="Layer_1-2" data-name="Layer 1">
    <g>
      <g>
        <path class="cls-2" d="M62.31,31.16c0,17.21-13.95,31.16-31.16,31.16S0,48.36,0,31.16,13.95,0,31.16,0s31.16,13.95,31.16,31.16Z"/>
        <g>
          <g>
            <path class="cls-4" d="M26.83,55.45c-4.89,.69-9.19,.1-10.76-.98,0,0,5.48,.88,9.29-.1,3.82-.98,15.01-7.21,18.58-9.39,3.39-2.08,12.32-4.4,17.7-7.57,.41-2.02,.63-4.11,.63-6.26,0-1.05-.07-2.08-.17-3.11-2.17,1.08-5.5,2.62-8.18,3.44-6.75,2.05-12.23,8.02-17.11,13.4-4.89,5.38-12.62,10-19.47,8.82,0,0,8.03-.57,11.93-4.2,6.75-6.26,12.75-17.87,15.36-20.85,4.55-5.2,11.52-6.69,15.54-8.67-1.09-2.83-2.56-5.47-4.38-7.83l-.41,.06c-13.89,2-15.46,9.38-17.91,16.05-2.45,6.66-5.11,17.55-13.77,22.43-8.63,4.85-16.67,.05-16.76,0,5.71,7.06,14.44,11.59,24.23,11.59,6.42,0,12.39-1.95,17.35-5.29-4.69,1.09-10.78,2.27-15.91,2.47-9.88,.39-15.84-1.56-18.09-3.71,0,0,7.23,2.83,15.74,1.76,7.51-.95,17.31-2.22,24.42-6,1.56-1.8,2.92-3.77,4.03-5.89-2.9,1.1-7.24,2.7-9.58,3.38-3.49,1.01-17.4,5.77-22.29,6.45Z"/>
            <path class="cls-1" d="M23.69,50.68c8.66-4.88,11.32-15.77,13.77-22.43,2.45-6.67,4.02-14.05,17.91-16.05l.41-.06h0c-.09-.05-8.14-4.85-16.75,0-8.67,4.88-11.33,15.78-13.77,22.44-2.44,6.66-4.45,14.1-18.33,16.1h0c.09,.05,8.14,4.86,16.76,0Z"/>
          </g>
          <g>
            <path class="cls-3" d="M.67,24.91s0,0,.01,0"/>
            <path class="cls-3" d="M31.16,.04C24.74,.04,18.8,2,13.85,5.33c4.68-1.09,10.76-2.26,15.87-2.46,9.88-.38,15.84,1.57,18.1,3.72,0,0-7.24-2.84-15.74-1.77-7.52,.96-17.32,2.21-24.44,6-1.56,1.8-2.91,3.76-4.03,5.88,2.91-1.09,7.25-2.69,9.58-3.37,3.49-1.01,17.4-5.77,22.29-6.45,4.89-.68,9.19-.09,10.77,.98,0,0-5.48-.88-9.3,.1-3.82,.98-15.02,7.19-18.58,9.38-3.39,2.09-12.31,4.4-17.69,7.57C.27,26.93,.04,29.01,.04,31.16c0,1.05,.07,2.09,.17,3.12,2.17-1.07,5.51-2.61,8.19-3.45,6.75-2.05,12.23-8.01,17.11-13.39,4.89-5.38,12.62-9.48,19.46-8.31,0,0-8.03,.59-11.93,4.21-6.75,6.26-12.75,17.36-15.36,20.34-4.55,5.2-11.53,6.69-15.55,8.67,1.17,3.03,2.78,5.85,4.79,8.33,13.88-1.99,15.88-9.44,18.33-16.1,2.44-6.66,5.1-17.55,13.77-22.44,8.62-4.85,16.67-.05,16.75,0C50.09,4.78,41.18,.04,31.16,.04Z"/>
          </g>
        </g>
      </g>
      <g>
        <path class="cls-3" d="M71.92,35.91h5.95c.36,2.67,2.28,4.02,5.27,4.02,2.67,0,4.24-1,4.24-2.71v-.14c0-1.71-1.14-2.46-5.91-3.31-6.09-1.1-8.69-3.38-8.69-7.55v-.25c0-4.63,4.13-7.55,9.83-7.55s9.9,2.88,10.33,8.19h-5.95c-.25-2.39-1.85-3.53-4.49-3.53s-3.78,1.14-3.78,2.64v.11c0,1.46,.71,2.28,5.52,3.06,5.81,.96,9.12,3.13,9.12,7.51v.28c0,4.91-4.34,7.94-10.36,7.94-6.7,0-10.72-3.28-11.08-8.73Z"/>
        <path class="cls-3" d="M96.06,44.17V18.89h6.02v9.87h10.11v-9.87h6.02v25.29h-6.02v-10.51h-10.11v10.51h-6.02Z"/>
        <path class="cls-3" d="M121.77,44.17V18.89h11.47c5.38,0,9.4,2.85,9.4,8.19v.36c0,3.85-2.03,6.38-5.2,7.51l5.95,9.22h-6.59l-5.27-8.55h-3.81v8.55h-5.95Zm5.95-13.43h4.88c2.28,0,3.85-1,3.85-3.31v-.36c0-2.32-1.57-3.31-3.85-3.31h-4.88v6.98Z"/>
        <path class="cls-3" d="M145.48,44.17V18.89h18.66v4.88h-12.75v5.16h11.43v4.74h-11.43v5.63h13.03v4.88h-18.95Z"/>
        <path class="cls-3" d="M174.47,44.17l-8.62-25.29h6.41l5.66,18.59,5.66-18.59h6.2l-8.65,25.29h-6.66Z"/>
        <path class="cls-3" d="M191.84,44.17V18.89h18.66v4.88h-12.75v5.16h11.43v4.74h-11.43v5.63h13.03v4.88h-18.95Z"/>
        <path class="cls-3" d="M213.71,44.17V18.89h11.11c5.38,0,9.4,2.85,9.4,8.19v.36c0,5.38-3.99,8.19-9.4,8.19h-5.16v8.55h-5.95Zm5.95-13.43h4.52c2.28,0,3.85-1,3.85-3.31v-.36c0-2.32-1.57-3.31-3.85-3.31h-4.52v6.98Z"/>
        <path class="cls-3" d="M236,31.89v-.71c0-7.37,4.81-12.75,12.54-12.75s12.57,5.38,12.57,12.75v.71c0,7.37-4.81,12.75-12.57,12.75s-12.54-5.38-12.54-12.75Zm18.87,0v-.71c0-4.77-2.24-7.8-6.34-7.8s-6.3,3.03-6.3,7.8v.71c0,4.77,2.28,7.8,6.3,7.8s6.34-3.03,6.34-7.8Z"/>
        <path class="cls-3" d="M263.95,44.17V18.89h11.47c5.38,0,9.4,2.85,9.4,8.19v.36c0,3.85-2.03,6.38-5.2,7.51l5.95,9.22h-6.59l-5.27-8.55h-3.81v8.55h-5.95Zm5.95-13.43h4.88c2.28,0,3.85-1,3.85-3.31v-.36c0-2.32-1.57-3.31-3.85-3.31h-4.88v6.98Z"/>
        <path class="cls-3" d="M293.01,44.17V23.77h-6.98v-4.88h19.94v4.88h-6.95v20.41h-6.02Z"/>
        <path class="cls-3" d="M314.77,44.17V18.89h11.47c5.38,0,9.4,2.85,9.4,8.19v.36c0,3.85-2.03,6.38-5.2,7.51l5.95,9.22h-6.59l-5.27-8.55h-3.81v8.55h-5.95Zm5.95-13.43h4.88c2.28,0,3.85-1,3.85-3.31v-.36c0-2.32-1.57-3.31-3.85-3.31h-4.88v6.98Z"/>
        <path class="cls-3" d="M338.48,44.17V18.89h18.66v4.88h-12.75v5.16h11.43v4.74h-11.43v5.63h13.03v4.88h-18.95Z"/>
        <path class="cls-3" d="M358.85,31.89v-.71c0-7.44,4.88-12.75,12.5-12.75,6.37,0,10.4,3.77,11.15,8.9h-6.05c-.61-2.42-2.32-3.95-5.2-3.95-4.02,0-6.16,3.13-6.16,7.8v.71c0,4.7,2.24,7.8,6.41,7.8s5.91-2.39,6.09-5.2h-6.66v-4.49h11.68v14.17h-4.34l-.5-3.21c-1.25,2.14-3.95,3.67-7.37,3.67-7.09,0-11.54-5.27-11.54-12.75Z"/>
        <path class="cls-3" d="M386.09,44.17V18.89h6.05v25.29h-6.05Z"/>
        <path class="cls-3" d="M395.17,31.89v-.71c0-7.37,4.81-12.75,12.54-12.75s12.57,5.38,12.57,12.75v.71c0,7.37-4.81,12.75-12.57,12.75s-12.54-5.38-12.54-12.75Zm18.87,0v-.71c0-4.77-2.24-7.8-6.34-7.8s-6.3,3.03-6.3,7.8v.71c0,4.77,2.28,7.8,6.3,7.8s6.34-3.03,6.34-7.8Z"/>
        <path class="cls-3" d="M423.12,44.17V18.89h7.02l9.58,16.77V18.89h5.66v25.29h-6.66l-9.87-17.45v17.45h-5.73Z"/>
        <path class="cls-3" d="M466.71,44.17l-1.75-5.02h-9.69l-1.75,5.02h-6.09l9.51-25.29h6.55l9.51,25.29h-6.3Zm-9.79-9.72h6.45l-3.24-9.33-3.21,9.33Z"/>
        <path class="cls-3" d="M475.04,44.17V18.89h6.02v20.41h9.69v4.88h-15.71Z"/>
        <path class="cls-3" d="M517.38,44.17l-1.75-5.02h-9.69l-1.75,5.02h-6.09l9.51-25.29h6.55l9.51,25.29h-6.3Zm-9.79-9.72h6.45l-3.24-9.33-3.21,9.33Z"/>
        <path class="cls-3" d="M525.89,44.17V18.89h6.05v25.29h-6.05Z"/>
        <path class="cls-3" d="M535.68,44.17V18.89h11.47c5.38,0,9.4,2.85,9.4,8.19v.36c0,3.85-2.03,6.38-5.2,7.51l5.95,9.22h-6.59l-5.27-8.55h-3.81v8.55h-5.95Zm5.95-13.43h4.88c2.28,0,3.85-1,3.85-3.31v-.36c0-2.32-1.57-3.31-3.85-3.31h-4.88v6.98Z"/>
        <path class="cls-3" d="M559.39,44.17V18.89h11.11c5.38,0,9.4,2.85,9.4,8.19v.36c0,5.38-3.99,8.19-9.4,8.19h-5.16v8.55h-5.95Zm5.95-13.43h4.52c2.28,0,3.85-1,3.85-3.31v-.36c0-2.32-1.57-3.31-3.85-3.31h-4.52v6.98Z"/>
        <path class="cls-3" d="M581.68,31.89v-.71c0-7.37,4.81-12.75,12.54-12.75s12.57,5.38,12.57,12.75v.71c0,7.37-4.81,12.75-12.57,12.75s-12.54-5.38-12.54-12.75Zm18.87,0v-.71c0-4.77-2.24-7.8-6.34-7.8s-6.3,3.03-6.3,7.8v.71c0,4.77,2.28,7.8,6.3,7.8s6.34-3.03,6.34-7.8Z"/>
        <path class="cls-3" d="M609.64,44.17V18.89h11.47c5.38,0,9.4,2.85,9.4,8.19v.36c0,3.85-2.03,6.38-5.2,7.51l5.95,9.22h-6.59l-5.27-8.55h-3.81v8.55h-5.95Zm5.95-13.43h4.88c2.28,0,3.85-1,3.85-3.31v-.36c0-2.32-1.57-3.31-3.85-3.31h-4.88v6.98Z"/>
        <path class="cls-3" d="M638.69,44.17V23.77h-6.98v-4.88h19.94v4.88h-6.95v20.41h-6.02Z"/>
      </g>
    </g>
  </g>
</svg>