<svg width="32" height="32" viewBox="0 0 32 32" fill="none" xmlns="http://www.w3.org/2000/svg">
<g clip-path="url(#clip0_3515_2)">
<path d="M28.6935 20.1825C28.3965 19.7695 25.1511 14.1343 24.2811 12.6519C22.458 9.54469 20.6361 6.4375 18.813 3.33032C18.2375 2.3476 17.0412 0 16.0637 0C15.0862 0 14.4215 1.33996 14.0133 2.02596C13.681 2.58616 13.3474 3.14517 13.015 3.70536C12.1132 5.22098 11.2127 6.73659 10.3109 8.25221C8.46826 11.3511 6.62438 14.4512 4.78173 17.55C4.34306 18.2871 3.90439 19.0253 3.46572 19.7623C2.06662 22.1147 4.21109 25.0415 4.8245 26.1488C5.76537 27.8484 7.66668 31.5537 8.58556 31.9015C9.00957 32.0617 9.50689 32.0237 9.89913 31.8018C10.5138 31.454 15.3306 23.9745 15.3135 22.3034C15.2988 20.9148 14.909 19.919 14.1856 18.801C13.6419 17.9607 11.5438 14.4286 11.0758 13.6631C10.4319 12.6092 9.46412 11.3831 10.6531 10.3802C11.4204 9.73222 20.3404 9.13879 21.6357 10.6936C22.1049 11.2573 21.9326 11.9089 21.5831 12.4739C21.0919 13.2702 17.5703 19.7469 17.139 20.897C16.4303 22.7876 22.4177 22.6689 23.1508 22.6689C23.884 22.6689 30.4824 22.6689 28.6935 20.1825ZM11.121 21.4714C11.4033 21.8441 11.556 22.1764 11.5622 22.6393C11.5695 23.1971 9.68774 25.6907 9.44702 25.807C9.29306 25.8806 9.09877 25.8936 8.93381 25.8402C8.57457 25.7239 7.83164 24.4884 7.46384 23.9223C7.22435 23.5531 6.38733 22.5764 6.93353 21.793C7.1046 21.5474 8.03692 20.3083 8.46582 19.7932C8.82017 19.3683 9.45557 19.4027 9.70729 19.754C9.89057 20.0092 10.9084 21.1925 11.121 21.4726V21.4714Z" fill="url(#paint0_linear_3515_2)"/>
<path d="M12.9782 0.0700684H5.47438C4.47852 0.0700684 3.84678 1.09551 4.327 1.93224L7.36713 7.17815C7.86446 8.04455 9.16336 8.04455 9.6619 7.17815L13.4523 0.839151C13.6502 0.493776 13.39 0.0700684 12.9782 0.0700684Z" fill="url(#paint1_linear_3515_2)"/>
</g>
<defs>
<linearGradient id="paint0_linear_3515_2" x1="15.735" y1="0.00356056" x2="16.1108" y2="31.9184" gradientUnits="userSpaceOnUse">
<stop stop-color="#FE0E76"/>
<stop offset="0.28" stop-color="#D30A81"/>
<stop offset="0.6" stop-color="#AA078D"/>
<stop offset="0.85" stop-color="#910594"/>
<stop offset="1" stop-color="#880597"/>
</linearGradient>
<linearGradient id="paint1_linear_3515_2" x1="8.82977" y1="0.0309021" x2="8.922" y2="7.82386" gradientUnits="userSpaceOnUse">
<stop stop-color="#FE0E76"/>
<stop offset="0.28" stop-color="#D30A81"/>
<stop offset="0.6" stop-color="#AA078D"/>
<stop offset="0.85" stop-color="#910594"/>
<stop offset="1" stop-color="#880597"/>
</linearGradient>
<clipPath id="clip0_3515_2">
<rect width="26" height="32" fill="white" transform="translate(3)"/>
</clipPath>
</defs>
</svg>
